<?xml version="1.0" standalone="no"?><!DOCTYPE svg PUBLIC "-//W3C//DTD SVG 1.1//EN" "http://www.w3.org/Graphics/SVG/1.1/DTD/svg11.dtd"><svg class="icon" width="200px" height="200.00px" viewBox="0 0 1024 1024" version="1.1" xmlns="http://www.w3.org/2000/svg"><path d="M864 85.333333h-704C118.826667 85.333333 85.333333 118.826667 85.333333 160v704C85.333333 905.173333 118.826667 938.666667 160 938.666667h704c41.173333 0 74.666667-33.493333 74.666667-74.666667v-704C938.666667 118.826667 905.173333 85.333333 864 85.333333z m-704 64h704c5.76 0 10.666667 4.906667 10.666667 10.666667v123.733333H149.333333V160c0-5.76 4.906667-10.666667 10.666667-10.666667z m704 725.333334h-704c-5.76 0-10.666667-4.906667-10.666667-10.666667V347.733333h725.333334v516.266667c0 5.76-4.906667 10.666667-10.666667 10.666667z"  /><path d="M298.026667 622.08l72.106666-98.986667a32.064 32.064 0 0 0-51.84-37.76l-88.32 120.96c-9.386667 12.8-7.893333 30.293333 3.2 41.386667l102.613334 102.613333c6.186667 6.186667 14.506667 9.386667 22.613333 9.386667s16.426667-3.2 22.613333-9.386667c12.586667-12.586667 12.586667-32.853333 0-45.226666l-82.986666-82.986667zM705.706667 485.546667a32.064 32.064 0 0 0-51.84 37.76l72.106666 98.986666-83.2 83.2a31.786667 31.786667 0 0 0 0 45.226667c6.186667 6.186667 14.506667 9.386667 22.613334 9.386667s16.426667-3.2 22.613333-9.386667l102.613333-102.613333c11.093333-11.093333 12.586667-28.8 3.2-41.386667l-88.106666-121.173333zM589.866667 491.946667c-15.36-8.746667-34.773333-3.626667-43.733334 11.733333l-123.733333 214.186667c-8.746667 15.36-3.626667 34.773333 11.733333 43.733333a32.042667 32.042667 0 0 0 43.733334-11.733333l123.52-214.186667c8.96-15.36 3.84-34.773333-11.52-43.733333z"  /></svg>